<?xml version="1.0" encoding="utf-8"?>
<!-- Generator: Adobe Illustrator 19.0.1, SVG Export Plug-In . SVG Version: 6.00 Build 0)  -->
<svg version="1.1" id="Слой_1" xmlns="http://www.w3.org/2000/svg" xmlns:xlink="http://www.w3.org/1999/xlink" x="0px" y="0px"
	 viewBox="-285 389 25 16" style="enable-background:new -285 389 25 16;" xml:space="preserve">
<style type="text/css">
	.st0{fill:#757575;}
</style>
<title>mail-envelope-closed</title>
<path stroke="#757575" class="st0"
       d="M-283.7,390.3l11.2,9.7l11.2-9.7c0.2,0.2,0.3,0.4,0.3,0.7v12c0,0.6-0.4,1-1,1h-21c-0.6,0-1-0.5-1-1v-12
	C-284,390.7-283.9,390.5-283.7,390.3z M-283,389c-1.1,0-2,0.9-2,2v12c0,1.1,0.9,2,2,2h21c1.1,0,2-0.9,2-2v-12c0-1.1-0.9-2-2-2
	C-262,389-283,389-283,389z M-272.5,398.7l-10-8.7h20L-272.5,398.7z"/>
</svg>
